<svg xmlns="http://www.w3.org/2000/svg" width="120" height="120" viewBox="0 0 29 29" shape-rendering="crispEdges" role="img" aria-label="QR code placeholder">
  <rect width="29" height="29" fill="#ffffff"/>
  <g fill="#1f2d5a">
    <!-- finder top-left -->
    <path d="M0 0h7v7H0zM1 1v5h5V1z" />
    <rect x="2" y="2" width="3" height="3"/>
    <!-- finder top-right -->
    <path d="M22 0h7v7h-7zM23 1v5h5V1z"/>
    <rect x="24" y="2" width="3" height="3"/>
    <!-- finder bottom-left -->
    <path d="M0 22h7v7H0zM1 23v5h5v-5z"/>
    <rect x="2" y="24" width="3" height="3"/>
    <!-- timing + sample modules -->
    <rect x="9" y="2" width="1" height="1"/><rect x="11" y="2" width="1" height="1"/><rect x="13" y="3" width="1" height="1"/>
    <rect x="16" y="2" width="1" height="1"/><rect x="18" y="3" width="1" height="1"/><rect x="20" y="2" width="1" height="1"/>
    <rect x="8" y="8" width="1" height="1"/><rect x="10" y="9" width="1" height="1"/><rect x="12" y="8" width="1" height="1"/>
    <rect x="14" y="10" width="1" height="1"/><rect x="16" y="9" width="1" height="1"/><rect x="18" y="8" width="1" height="1"/>
    <rect x="20" y="10" width="1" height="1"/><rect x="9" y="11" width="1" height="1"/><rect x="11" y="12" width="1" height="1"/>
    <rect x="13" y="11" width="1" height="1"/><rect x="15" y="13" width="1" height="1"/><rect x="17" y="12" width="1" height="1"/>
    <rect x="19" y="11" width="1" height="1"/><rect x="8" y="14" width="1" height="1"/><rect x="10" y="15" width="1" height="1"/>
    <rect x="12" y="14" width="1" height="1"/><rect x="14" y="16" width="1" height="1"/><rect x="16" y="15" width="1" height="1"/>
    <rect x="18" y="14" width="1" height="1"/><rect x="20" y="16" width="1" height="1"/><rect x="22" y="10" width="1" height="1"/>
    <rect x="24" y="9" width="1" height="1"/><rect x="26" y="11" width="1" height="1"/><rect x="9" y="18" width="1" height="1"/>
    <rect x="11" y="19" width="1" height="1"/><rect x="13" y="18" width="1" height="1"/><rect x="15" y="20" width="1" height="1"/>
    <rect x="17" y="19" width="1" height="1"/><rect x="19" y="18" width="1" height="1"/><rect x="21" y="20" width="1" height="1"/>
    <rect x="23" y="14" width="1" height="1"/><rect x="25" y="15" width="1" height="1"/><rect x="27" y="13" width="1" height="1"/>
    <rect x="10" y="22" width="1" height="1"/><rect x="12" y="24" width="1" height="1"/><rect x="14" y="22" width="1" height="1"/>
    <rect x="16" y="26" width="1" height="1"/><rect x="18" y="23" width="1" height="1"/><rect x="20" y="25" width="1" height="1"/>
    <rect x="22" y="22" width="1" height="1"/><rect x="24" y="24" width="1" height="1"/><rect x="26" y="22" width="1" height="1"/>
    <rect x="22" y="27" width="1" height="1"/><rect x="25" y="27" width="1" height="1"/><rect x="27" y="25" width="1" height="1"/>
  </g>
</svg>
